<?xml version="1.0" standalone="no"?>
<!DOCTYPE svg PUBLIC "-//W3C//DTD SVG 20010904//EN"
 "http://www.w3.org/TR/2001/REC-SVG-20010904/DTD/svg10.dtd">
<svg version="1.0" xmlns="http://www.w3.org/2000/svg"
 width="120.000000pt" height="120.000000pt" viewBox="0 0 120.000000 120.000000"
 preserveAspectRatio="xMidYMid meet">

<g transform="translate(0.000000,120.000000) scale(0.100000,-0.100000)"
fill="#000000" stroke="none">
<path d="M0 600 l0 -600 600 0 600 0 0 600 0 600 -600 0 -600 0 0 -600z m726
492 c-4 -3 -11 0 -16 8 -5 8 -12 11 -16 7 -4 -3 -1 -13 5 -21 8 -10 9 -16 1
-21 -5 -3 -10 1 -10 9 0 9 -7 16 -15 16 -21 0 -29 24 -16 48 10 20 12 19 42
-9 18 -16 29 -33 25 -37z m-76 -27 c17 -9 30 -20 30 -26 0 -8 -4 -8 -14 0 -11
9 -16 9 -21 0 -4 -6 -2 -15 5 -19 7 -4 8 -10 3 -13 -5 -3 -19 12 -31 34 -24
42 -18 48 28 24z m362 -17 c-7 -7 -12 -19 -12 -27 0 -8 -12 -30 -27 -50 -16
-19 -39 -56 -53 -82 -68 -129 -100 -174 -100 -140 0 15 -32 6 -46 -14 -19 -26
-17 -35 6 -35 11 0 20 5 20 11 0 5 5 7 10 4 6 -4 9 -12 8 -18 -5 -22 17 -20
28 2 6 12 14 25 18 28 10 11 -5 -30 -18 -46 -6 -7 -11 -28 -12 -46 0 -22 -11
-44 -32 -66 -18 -19 -32 -43 -32 -54 0 -16 -2 -17 -10 -5 -15 24 -69 13 -97
-21 -14 -16 -30 -29 -37 -29 -22 0 -46 -34 -40 -57 7 -27 -27 -63 -59 -63 -13
0 -29 -6 -37 -12 -12 -11 -12 -10 -1 5 7 9 24 17 37 17 33 0 59 41 44 70 -10
18 -14 19 -27 8 -38 -31 -129 -131 -135 -150 -4 -10 -12 -17 -17 -14 -5 4 -21
-8 -35 -26 -23 -30 -26 -31 -26 -11 0 27 -16 38 -27 19 -10 -18 -121 -136
-128 -136 -7 0 53 107 81 145 12 17 43 66 68 110 42 74 46 77 54 55 9 -24 9
-24 16 -3 4 11 15 23 26 26 14 3 17 11 13 28 -4 19 -3 21 6 9 13 -18 14 -1 1
20 -8 12 -14 11 -42 -8 l-33 -23 33 29 c35 31 41 56 16 70 -21 12 -14 46 11
51 11 2 25 11 31 20 10 12 11 8 5 -25 -4 -22 -11 -46 -15 -52 -15 -24 6 -50
66 -81 55 -29 63 -31 76 -17 14 13 13 17 -9 36 l-24 21 28 -17 c26 -16 29 -16
44 -1 15 15 15 18 -2 39 -11 13 -13 17 -5 11 8 -7 25 -13 38 -13 18 0 23 4 18
16 -9 24 3 54 21 54 9 0 13 6 9 15 -3 8 0 14 6 12 7 -1 14 6 16 17 3 12 -13
34 -48 67 -29 27 -48 49 -42 49 6 0 14 -5 18 -11 8 -13 114 88 114 109 0 7 4
11 9 8 5 -4 28 15 50 41 35 41 41 45 41 26 0 -13 4 -23 9 -23 7 0 68 65 119
128 9 12 19 19 21 16 3 -2 -1 -10 -7 -16z m-385 -75 c-4 -3 -13 0 -21 6 -10 8
-16 9 -21 1 -3 -5 1 -13 9 -16 9 -3 13 -10 10 -15 -6 -10 -62 30 -63 44 -1 5
8 5 19 2 11 -3 20 -2 20 3 0 6 -5 12 -12 14 -6 2 -9 9 -5 15 5 7 18 0 38 -18
18 -16 29 -32 26 -36z m-97 -12 c0 -5 -6 -11 -12 -14 -10 -3 -10 -7 1 -20 16
-20 38 -22 44 -4 2 6 8 9 13 4 4 -4 0 -15 -9 -25 -13 -12 -21 -14 -34 -6 -25
15 -37 39 -30 58 7 17 27 22 27 7z m-28 -68 c22 -20 24 -51 3 -60 -19 -7 -55
24 -55 47 0 33 23 39 52 13z m-51 -67 c15 -13 25 -26 22 -30 -3 -3 -12 -1 -20
6 -7 6 -17 8 -21 4 -4 -4 1 -14 11 -21 11 -8 14 -16 8 -19 -10 -7 -61 31 -61
45 0 4 9 5 20 2 11 -3 20 0 20 6 0 6 -4 11 -10 11 -5 0 -10 5 -10 10 0 15 10
12 41 -14z m446 -56 c-12 -18 -15 -18 -20 -5 -4 9 -1 15 8 15 9 0 16 11 16 28
2 23 2 24 6 5 2 -13 -2 -32 -10 -43z m-257 25 c-19 -14 -37 -25 -42 -25 -4 0
-17 -10 -29 -22 -16 -17 -19 -18 -12 -4 10 18 89 74 107 75 6 1 -5 -10 -24
-24z m-254 -22 c4 -10 6 -24 5 -30 -1 -7 3 -13 9 -13 5 0 10 5 10 11 0 5 5 7
11 4 7 -5 4 -13 -7 -26 -16 -18 -17 -18 -45 4 -31 24 -35 37 -17 55 16 16 25
15 34 -5z m-35 -67 c16 -14 25 -27 20 -31 -5 -3 -12 -1 -16 5 -12 19 -26 11
-15 -9 21 -39 7 -41 -34 -5 -29 26 -29 47 0 23 16 -13 17 -11 10 14 -8 33 -2
34 35 3z m147 -21 c-6 -14 -13 -23 -15 -21 -5 5 15 46 22 46 3 0 -1 -11 -7
-25z m-185 -79 c-4 -6 -8 -6 -11 2 -2 7 -9 12 -15 12 -15 0 -38 35 -30 44 10
10 63 -46 56 -58z m-43 6 c16 -16 27 -32 23 -36 -7 -7 -63 42 -63 56 0 14 9 9
40 -20z m785 4 c19 -8 35 -20 35 -25 0 -14 -6 -14 -31 -1 -23 13 -25 7 -4 -14
9 -9 11 -17 5 -21 -5 -3 -18 12 -30 35 -23 45 -23 46 25 26z m-814 -40 c16
-14 25 -27 20 -30 -4 -3 -16 3 -26 14 -28 31 -39 24 -16 -9 23 -32 26 -41 11
-41 -5 0 -10 6 -10 13 0 8 -9 22 -20 32 -15 14 -17 21 -9 32 15 17 16 17 50
-11z m745 -2 c-4 -10 4 -19 24 -28 17 -7 27 -15 24 -19 -4 -3 -15 -2 -25 4
-21 11 -25 -1 -7 -19 22 -22 -4 -12 -33 12 -28 24 -29 47 -1 23 13 -10 15 -9
9 6 -4 11 -5 23 -1 28 9 15 17 10 10 -7z m-451 -34 c10 -11 16 -20 13 -20 -3
0 -13 9 -23 20 -10 11 -16 20 -13 20 3 0 13 -9 23 -20z m-339 -35 c19 -29 3
-49 -30 -41 -29 7 -42 27 -32 52 8 21 45 14 62 -11z m759 -1 c28 -19 32 -36
10 -54 -21 -18 -77 29 -63 53 11 21 22 21 53 1z m-185 -24 c0 -5 -8 -10 -17
-10 -15 0 -16 2 -3 10 19 12 20 12 20 0z m-617 -63 c-5 -8 -8 -7 -11 1 -2 7
-8 12 -13 12 -4 0 -6 -7 -3 -15 5 -11 1 -14 -12 -9 -18 5 -18 5 -1 -9 10 -8
14 -18 9 -21 -11 -6 -68 51 -60 60 4 3 16 1 27 -6 22 -11 27 -4 12 20 -18 27
0 29 29 3 16 -14 26 -31 23 -36z m522 53 c3 -5 1 -10 -4 -10 -6 0 -11 5 -11
10 0 6 2 10 4 10 3 0 8 -4 11 -10z m254 -62 c3 -11 1 -11 -11 0 -10 8 -19 9
-22 3 -4 -5 -2 -12 4 -16 6 -4 8 -11 4 -17 -7 -11 -44 45 -44 68 0 14 5 13 32
-5 18 -11 35 -26 37 -33z m-301 18 c-7 -8 -17 -12 -22 -9 -4 3 -2 9 5 14 22
13 31 11 17 -5z m212 -27 c0 -5 -4 -7 -10 -4 -21 13 -9 -8 15 -27 14 -11 22
-24 19 -30 -4 -6 -9 -6 -13 -2 -3 5 -16 18 -29 28 -23 20 -23 20 -16 0 6 -15
4 -17 -6 -7 -11 10 -10 16 5 33 20 22 35 26 35 9z m-64 -62 c-16 -12 -16 -14
3 -31 17 -15 23 -16 36 -6 8 7 15 8 15 2 0 -16 -26 -33 -41 -27 -37 14 -46 75
-11 75 14 0 13 -2 -2 -13z m-25 -57 c22 -12 26 -55 5 -63 -19 -8 -56 20 -56
42 0 32 17 39 51 21z m-15 -98 c14 -10 15 -12 2 -8 -19 6 -43 -18 -33 -34 3
-5 2 -10 -3 -10 -4 0 -16 16 -25 35 -9 19 -22 35 -28 35 -7 0 -5 8 5 19 17 19
18 18 40 -3 12 -11 31 -27 42 -34z"/>
<path d="M660 1120 c0 -5 7 -10 16 -10 8 0 12 5 9 10 -3 6 -10 10 -16 10 -5 0
-9 -4 -9 -10z"/>
<path d="M736 681 c-4 -6 0 -11 10 -11 14 0 14 -2 3 -16 -7 -9 -14 -23 -15
-31 -2 -8 -10 -23 -18 -32 -20 -22 -21 -50 -1 -57 22 -9 78 31 99 71 19 35 19
36 0 55 -24 23 -69 35 -78 21z m18 -110 c3 -5 -1 -11 -9 -14 -9 -4 -12 -1 -8
9 6 16 10 17 17 5z"/>
<path d="M414 599 c-3 -6 -2 -15 4 -21 13 -13 32 -2 32 18 0 16 -26 19 -36 3z"/>
<path d="M462 878 c6 -16 36 -34 44 -25 9 9 -15 37 -33 37 -8 0 -13 -5 -11
-12z"/>
<path d="M360 760 c0 -5 5 -10 10 -10 6 0 10 5 10 10 0 6 -4 10 -10 10 -5 0
-10 -4 -10 -10z"/>
<path d="M146 513 c-7 -7 23 -43 36 -43 4 0 8 7 8 15 0 16 -34 38 -44 28z"/>
<path d="M916 501 c-4 -5 -2 -12 3 -15 5 -4 12 -2 15 3 4 5 2 12 -3 15 -5 4
-12 2 -15 -3z"/>
<path d="M940 470 c0 -5 5 -10 10 -10 6 0 10 5 10 10 0 6 -4 10 -10 10 -5 0
-10 -4 -10 -10z"/>
<path d="M715 270 c-8 -13 13 -40 31 -40 21 0 17 28 -5 40 -14 7 -22 7 -26 0z"/>
<path d="M660 216 c0 -15 38 -57 44 -48 3 5 -6 20 -19 32 -14 13 -25 20 -25
16z"/>
</g>
</svg>
